<?xml version="1.0" encoding="utf-8"?>
<!-- Svg Vector Icons : http://www.onlinewebfonts.com/icon -->
<!DOCTYPE svg PUBLIC "-//W3C//DTD SVG 1.1//EN" "http://www.w3.org/Graphics/SVG/1.1/DTD/svg11.dtd">
<svg version="1.1" xmlns="http://www.w3.org/2000/svg" xmlns:xlink="http://www.w3.org/1999/xlink" x="0px" y="0px" viewBox="0 0 256 256" enable-background="new 0 0 256 256" xml:space="preserve">
<metadata> Svg Vector Icons : http://www.onlinewebfonts.com/icon </metadata>
<g><g><g><path fill="#000000" d="M81.7,11c-3.2,1.9-3.1,1.5-3.1,26.6v22.8l5.3,1.7c5.9,2,15,3.9,22.9,4.9c8.3,1,34.2,0.9,42.5-0.2c8.3-1.1,16.7-2.9,22.5-4.7l4.5-1.4l0.1-23c0.1-24.4,0.1-24.9-2.3-26.7c-1.2-1-2.2-1-46.1-1C84.5,10,83.2,10,81.7,11z"/><path fill="#000000" d="M45.6,57.2c-3.4,1.5-4.7,5.7-2.9,9.2c1.4,2.7,15.6,11.4,25.4,15.6c21.6,9.2,65.3,11.8,97.3,5.9c7.4-1.4,17.6-4.1,22.4-6c4.2-1.6,18.1-8.5,21.9-10.8c3.4-2.1,4.7-4.3,4.3-7.3c-0.4-3.5-4.3-6.2-7.4-5.5c-1.5,0.3-5.1,2.2-14.2,7.4c-24.4,14-74.4,17.8-108,8.4c-8.9-2.5-19.3-7.4-28.8-13.6C49.8,56.6,48.1,56.1,45.6,57.2z"/><path fill="#000000" d="M69.7,93.1l-2.1,3H61c-7.6,0-9.1,0.5-12.2,3.9c-5.7,6.3-1.9,16.3,6.7,17.9c2.3,0.4,2.2,0.1,1.3,5.2c-0.7,4.4-0.6,15.3,0.2,20.2c2.2,12.9,8.5,24.8,18.1,34.5l4.7,4.8l-5.2,2.6c-19.1,9.5-33.1,21.7-38.9,33.9l-1.9,3.9l-0.1,8.5l-0.2,8.5l1.7,0.2c1.8,0.3,19.4,1.8,33.8,3c51.5,4.1,76.2,3.8,134.8-1.4c7.5-0.7,14.8-1.4,16.2-1.5l2.6-0.3v-7.4c0-6.2-0.1-7.8-1-10c-3.5-9.3-15.8-21.7-31.2-31.3c-3.9-2.4-6.4-3.7-14.6-7.1c-1.1-0.5-0.9-0.7,3.4-4.8c12.5-11.9,19.5-26.9,20.6-44c0.2-4.4,0.1-6.9-1.1-15.2l-0.3-2.3h1.6c2.1,0,4.9-1.2,6.7-2.9c4.4-4.1,4.4-12,0-16c-2.6-2.4-4.5-2.9-11.7-2.9h-6.6l-2.1-3c-1.9-2.7-2.3-3-3.4-2.7c-3.8,0.9-18.5,3.8-24.3,4.7c-24,3.7-48.5,3.3-70.7-1c-4.6-0.9-13.2-3-15-3.7C72.1,90.2,71,91.3,69.7,93.1z M183.1,99.9c2.6,2.8,6.7,17.2,7.8,27.3c1.9,16.2-4.9,33.9-17.5,45.9c-11.6,11-25.9,17.1-42.2,17.8c-25.7,1.2-49.2-11.7-60.3-33c-4.9-9.4-6.5-16.6-6.1-27.5c0.3-8.9,2.9-20.5,5.9-26.8c1.1-2.2,2.2-4.1,2.4-4.1c0.2,0,2.7,0.5,5.5,1.2c5.9,1.4,18.3,3.4,27.1,4.3c9.5,1,33.2,0.8,42.3-0.3c7.7-0.9,24.8-3.7,30.4-4.9c1.8-0.4,3.4-0.7,3.5-0.7C182.2,99,182.7,99.4,183.1,99.9z M112.6,197.9c4.3,0.9,4.8,1.1,8.3,4c2,1.7,3.7,3.1,3.7,3.3c0,0.1-1.2,1.8-2.8,3.8c-4.4,5.6-7.1,12.1-9.4,21.9c-0.2,0.8-0.4,1.2-0.5,1c-0.4-1.2-9.6-35.9-9.6-36.3c0-0.2,1.3,0,2.8,0.5C106.7,196.6,110,197.4,112.6,197.9z M150.6,197.1c-3.7,14.8-8.6,32.6-8.8,32.1c-0.1-0.4-0.7-2.6-1.3-4.9c-1.4-5.4-4.7-12.3-7.8-16.1l-2.4-3l4.4-3.2c4-2.9,4.8-3.3,8.8-4.1c2.4-0.5,4.8-1.1,5.5-1.3C150.7,195.9,150.9,195.9,150.6,197.1z"/><path fill="#000000" d="M96,112.3c-3,1-6.8,4.6-8.4,8c-1.1,2.3-1.4,3.5-1.4,6.5c0.1,6.4,3,11.2,8.6,14c8,4,17.1,0.8,21-7.3c1-2.1,1.4-3.8,1.4-5.6c0-2.6,0-2.6,2.2-3.6c4.5-2,11.1-2.2,15.9-0.4c1.6,0.5,1.7,0.7,1.7,2.9c0,5.9,3.2,11.1,8.6,13.9c3,1.5,3.9,1.7,7.2,1.7c3.1,0,4.3-0.2,6.6-1.4c5.3-2.6,8.4-7.2,8.7-13.2c0.2-4.8-1-8.4-4.2-11.6s-6.5-4.7-10.9-4.7c-5.2,0-7.8,1.1-11.5,4.7l-3.1,3.1l-1.6-0.7c-4.8-2-12.2-1.9-18.4,0.2l-2.6,0.9l-1-1.6c-1.4-2.2-3.7-4.1-6.7-5.5C105,111.2,99.4,111,96,112.3z M105.4,118c2.2,0.9,5.2,4.4,5.6,6.5c1.1,6.3-3.1,11.6-9.4,11.6c-5.3,0-9.2-4-9.2-9.5C92.4,120.1,99.4,115.5,105.4,118z M156.6,118.1c2.4,1,3.5,2,4.7,4.4c1.4,2.9,1.1,7.4-0.7,9.9c-1.8,2.3-4.7,3.8-7.5,3.8c-3.1,0-5.1-0.9-7.3-3.4c-3.2-3.5-3.1-8.5,0.2-12.3c0.8-1,2.2-2.1,3.1-2.4C151.1,117.1,154.4,117.2,156.6,118.1z"/><path fill="#000000" d="M116.4,146.5c-1.9,0.5-6.5,2.2-10.1,3.8c-6.6,2.8-6.7,2.9-11.3,2.8c-5.2,0-8.8-1.1-13.8-4.5c-3.1-2-3.3-1.8-3,2.9c0.4,6.8,6.4,14.3,14.3,18.1c5.3,2.6,8.6,3.3,14.1,3c3.7-0.1,5-0.4,7.8-1.8c6.2-2.9,10.4-8.7,12-16.6C128,146.1,125.5,144.1,116.4,146.5z"/><path fill="#000000" d="M131.1,146c-1.8,0.7-2.3,2.7-1.6,7.2c1.1,7.9,5.7,14.6,12.3,17.7c3.2,1.5,3.6,1.6,9.3,1.6c4.9,0,6.4-0.2,8.9-1.1c9.7-3.6,17.4-12,18-19.6c0.1-1.7,0.1-3.4-0.2-3.9c-0.4-0.7-0.7-0.6-2.7,0.7c-4.5,3.1-9.8,4.8-14.3,4.8c-2.8,0-5.6-0.9-13.9-4.3C139.3,146,133.9,144.9,131.1,146z"/></g></g></g>
</svg>