<svg xmlns="http://www.w3.org/2000/svg" xmlns:xlink="http://www.w3.org/1999/xlink" version="1.1" x="0px" y="0px" viewBox="0 0 100 125" style="enable-background:new 0 0 100 100;" xml:space="preserve"><g><g><g><path d="M50.35,32.96c-3.24,0-31.64-0.19-31.64-6.81c0-6.62,28.4-6.81,31.64-6.81S82,19.54,82,26.15     C82,32.77,53.59,32.96,50.35,32.96z M21.85,26.15c1.61,1.4,11.11,3.81,28.5,3.81s26.89-2.4,28.5-3.81     c-1.61-1.4-11.11-3.81-28.5-3.81C32.96,22.35,23.46,24.75,21.85,26.15z M79.04,26.36L79.04,26.36L79.04,26.36z"/></g><g><path d="M50.35,69.74c-3.24,0-31.64-0.19-31.64-6.81c0-0.02,0-0.04,0-0.06c0-0.02,0-0.05,0-0.07V27.43c0-0.43,0.18-0.84,0.5-1.12     c0.32-0.28,0.75-0.42,1.17-0.37c0.18,0.02,0.36,0.04,0.54,0.05l0.53,0.05c0.23,0.03,0.46,0.11,0.65,0.23     c2.81,1.83,13.41,3.68,28.25,3.68c14.84,0,25.44-1.85,28.25-3.68c0.2-0.13,0.42-0.21,0.65-0.23l0.54-0.05     c0.18-0.02,0.36-0.03,0.53-0.05c0.43-0.05,0.85,0.09,1.17,0.37S82,27,82,27.43V62.8c0,0.02,0,0.05,0,0.07c0,0.02,0,0.04,0,0.06     C82,69.55,53.59,69.74,50.35,69.74z M21.74,62.83c1.25,1.38,10.78,3.91,28.61,3.91c17.82,0,27.35-2.52,28.61-3.91     c0-0.12,0.01-0.24,0.04-0.35V29.45c-4.79,2.12-15.87,3.5-28.64,3.5s-23.86-1.38-28.64-3.5v33.06     C21.73,62.61,21.74,62.72,21.74,62.83z M80.46,62.81L80.46,62.81L80.46,62.81z"/></g><g><path d="M37.85,80.65c-6.48,0-12.8-0.87-18.09-2.86c-6.34-2.39-10.59-6.24-12.29-11.14c-1.92-5.54-1.73-10.28,0.56-14.09     c3.72-6.21,11.61-7.52,11.94-7.57c0.82-0.13,1.59,0.43,1.72,1.25c0.13,0.82-0.43,1.58-1.25,1.72c-0.09,0.01-6.87,1.17-9.85,6.17     c-1.8,3.02-1.9,6.9-0.29,11.55c1.42,4.09,4.96,7.22,10.52,9.32c14.18,5.34,36.25,2.14,47.19-4.07c6.16-3.5,11.25-5.7,14.96-7.31     c6.97-3.02,8.29-3.83,7.75-6.28c-1.05-4.71-10.04-4.27-10.13-4.26c-0.81,0.05-1.54-0.57-1.59-1.4c-0.05-0.83,0.57-1.54,1.4-1.59     c0.47-0.03,11.63-0.68,13.25,6.6c1.13,5.08-2.86,6.81-9.48,9.68c-3.65,1.58-8.65,3.75-14.67,7.17     C62.05,77.75,49.7,80.65,37.85,80.65z"/></g></g></g><text x="0" y="115" fill="#000000" font-size="5px" font-weight="bold" font-family="'Helvetica Neue', Helvetica, Arial-Unicode, Arial, Sans-serif">Created by Vanessa Chiquin</text><text x="0" y="120" fill="#000000" font-size="5px" font-weight="bold" font-family="'Helvetica Neue', Helvetica, Arial-Unicode, Arial, Sans-serif">from the Noun Project</text></svg>